<svg xmlns="http://www.w3.org/2000/svg" viewBox="0 0 64 64" width="64" height="64">
  <path d="M63.371 29.195L34.805 0.629C33.384 -0.791 31.05 -0.791 29.629 0.629L23.669 6.589L31.126 14.046C32.746 13.468 34.612 13.801 35.937 15.125C37.269 16.458 37.598 18.344 37.001 19.97L44.152 27.121C45.777 26.525 47.665 26.851 48.998 28.186C50.822 30.008 50.822 33.002 48.998 34.826C47.174 36.65 44.181 36.65 42.357 34.826C40.951 33.42 40.654 31.343 41.46 29.63L34.77 22.94L34.77 43.637C35.215 43.857 35.631 44.152 35.937 44.457C37.761 46.281 37.761 49.274 35.937 51.1C34.113 52.923 31.117 52.923 29.295 51.1C27.471 49.274 27.471 46.281 29.295 44.457C29.661 44.091 30.093 43.798 30.557 43.587V22.704C30.093 22.493 29.662 22.202 29.295 21.834C27.882 20.422 27.591 18.333 28.41 16.614L21.049 9.254L0.628 29.673C-0.792 31.095 -0.792 33.429 0.628 34.85L29.195 63.417C30.616 64.837 32.95 64.837 34.371 63.417L63.371 34.417C64.792 32.995 64.792 30.617 63.371 29.195Z" fill="#F05032"/>
</svg> 