<svg width="400" height="400" viewBox="0 0 400 400" fill="none" xmlns="http://www.w3.org/2000/svg">
  <!-- Main circuit paths -->
  <path d="M50 200 H150 M250 200 H350 M200 50 V150 M200 250 V350" stroke="currentColor" stroke-width="2" stroke-linecap="round"/>
  
  <!-- Connecting nodes -->
  <circle cx="200" cy="200" r="10" fill="currentColor" opacity="0.5"/>
  <circle cx="200" cy="200" r="6" fill="currentColor"/>
  
  <!-- Secondary connections -->
  <path d="M50 100 H100 Q130 100 130 130 V170 Q130 200 100 200" stroke="currentColor" stroke-width="1.5" stroke-linecap="round"/>
  <path d="M350 100 H300 Q270 100 270 130 V170 Q270 200 300 200" stroke="currentColor" stroke-width="1.5" stroke-linecap="round"/>
  <path d="M100 50 V100 Q100 130 130 130 H170 Q200 130 200 100" stroke="currentColor" stroke-width="1.5" stroke-linecap="round"/>
  <path d="M300 50 V100 Q300 130 270 130 H230 Q200 130 200 100" stroke="currentColor" stroke-width="1.5" stroke-linecap="round"/>
  
  <path d="M50 300 H100 Q130 300 130 270 V230 Q130 200 100 200" stroke="currentColor" stroke-width="1.5" stroke-linecap="round"/>
  <path d="M350 300 H300 Q270 300 270 270 V230 Q270 200 300 200" stroke="currentColor" stroke-width="1.5" stroke-linecap="round"/>
  <path d="M100 350 V300 Q100 270 130 270 H170 Q200 270 200 300" stroke="currentColor" stroke-width="1.5" stroke-linecap="round"/>
  <path d="M300 350 V300 Q300 270 270 270 H230 Q200 270 200 300" stroke="currentColor" stroke-width="1.5" stroke-linecap="round"/>
  
  <!-- Detail nodes -->
  <circle cx="100" cy="200" r="4" fill="currentColor"/>
  <circle cx="300" cy="200" r="4" fill="currentColor"/>
  <circle cx="200" cy="100" r="4" fill="currentColor"/>
  <circle cx="200" cy="300" r="4" fill="currentColor"/>
  
  <circle cx="130" cy="130" r="3" fill="currentColor"/>
  <circle cx="270" cy="130" r="3" fill="currentColor"/>
  <circle cx="130" cy="270" r="3" fill="currentColor"/>
  <circle cx="270" cy="270" r="3" fill="currentColor"/>
  
  <!-- Decorative elements -->
  <rect x="90" y="90" width="20" height="20" rx="2" stroke="currentColor" stroke-width="1.5" fill="none"/>
  <rect x="290" y="90" width="20" height="20" rx="2" stroke="currentColor" stroke-width="1.5" fill="none"/>
  <rect x="90" y="290" width="20" height="20" rx="2" stroke="currentColor" stroke-width="1.5" fill="none"/>
  <rect x="290" y="290" width="20" height="20" rx="2" stroke="currentColor" stroke-width="1.5" fill="none"/>
  
  <!-- Small detail lines -->
  <path d="M50 150 H75 M50 250 H75 M325 150 H350 M325 250 H350" stroke="currentColor" stroke-width="1" stroke-linecap="round"/>
  <path d="M150 50 V75 M250 50 V75 M150 325 V350 M250 325 V350" stroke="currentColor" stroke-width="1" stroke-linecap="round"/>
  
  <!-- Dotted paths -->
  <path d="M40 40 L90 90 M310 90 L360 40 M40 360 L90 310 M310 310 L360 360" stroke="currentColor" stroke-width="1" stroke-linecap="round" stroke-dasharray="2 4"/>
</svg> 