<svg width="100" height="100" xmlns="http://www.w3.org/2000/svg">
  <pattern id="code-pattern" x="0" y="0" width="100" height="100" patternUnits="userSpaceOnUse">
    <!-- Curly Braces -->
    <path d="M20,10 C15,10 15,15 15,20 L15,30 C15,35 10,40 5,40 C10,40 15,45 15,50 L15,60 C15,65 15,70 20,70" stroke="currentColor" fill="none" stroke-width="1" stroke-linecap="round" stroke-linejoin="round" />
    <path d="M80,10 C85,10 85,15 85,20 L85,30 C85,35 90,40 95,40 C90,40 85,45 85,50 L85,60 C85,65 85,70 80,70" stroke="currentColor" fill="none" stroke-width="1" stroke-linecap="round" stroke-linejoin="round" />
    
    <!-- Angle Brackets -->
    <path d="M35,25 L25,40 L35,55" stroke="currentColor" fill="none" stroke-width="1" stroke-linecap="round" stroke-linejoin="round" />
    <path d="M65,25 L75,40 L65,55" stroke="currentColor" fill="none" stroke-width="1" stroke-linecap="round" stroke-linejoin="round" />
    
    <!-- Semicolons -->
    <circle cx="45" cy="65" r="1" fill="currentColor" />
    <circle cx="45" cy="70" r="1" fill="currentColor" />
    <circle cx="55" cy="65" r="1" fill="currentColor" />
    <circle cx="55" cy="70" r="1" fill="currentColor" />
    
    <!-- Function Dots -->
    <circle cx="50" cy="20" r="1" fill="currentColor" />
    <circle cx="55" cy="20" r="1" fill="currentColor" />
    <circle cx="60" cy="20" r="1" fill="currentColor" />
    
    <!-- Code Lines -->
    <line x1="30" y1="85" x2="70" y2="85" stroke="currentColor" stroke-width="1" stroke-linecap="round" />
    <line x1="35" y1="90" x2="65" y2="90" stroke="currentColor" stroke-width="1" stroke-linecap="round" />
    <line x1="40" y1="95" x2="60" y2="95" stroke="currentColor" stroke-width="1" stroke-linecap="round" />
  </pattern>
  <rect x="0" y="0" width="100" height="100" fill="url(#code-pattern)" />
</svg> 